<svg xmlns="http://www.w3.org/2000/svg" width="30" height="30"><path d="M 4.64 14.65 C 4.65 14.31 4.82 13.79 5.14 13.07 C 5.46 12.35 5.9 11.59 6.47 10.77 C 8.33 8.16 10.96 6.79 14.35 6.64 L 14.35 6.21 C 14.35 6 14.42 5.84 14.56 5.71 C 14.7 5.58 14.86 5.52 15.04 5.52 C 15.23 5.52 15.39 5.58 15.54 5.71 C 15.68 5.84 15.76 6.01 15.76 6.21 L 15.76 6.65 C 16.74 6.69 17.66 6.84 18.51 7.1 C 19.36 7.36 20.1 7.69 20.73 8.1 C 21.36 8.51 21.9 8.93 22.34 9.37 C 22.79 9.8 23.19 10.27 23.54 10.78 C 23.95 11.37 24.31 12.01 24.6 12.68 C 24.89 13.35 25.1 13.89 25.21 14.29 C 25.32 14.69 25.38 14.89 25.39 14.9 L 25.39 15.09 C 25.39 15.27 25.32 15.41 25.18 15.53 C 25.04 15.65 24.88 15.7 24.69 15.7 C 24.38 15.7 24.18 15.61 24.09 15.44 C 23.31 14.56 22.46 14.13 21.54 14.13 C 21.2 14.15 20.85 14.23 20.51 14.36 C 20.17 14.49 19.89 14.63 19.69 14.78 C 19.48 14.92 19.29 15.07 19.11 15.22 C 18.93 15.37 18.84 15.44 18.83 15.45 C 18.64 15.62 18.46 15.71 18.3 15.71 C 18.07 15.71 17.9 15.65 17.78 15.53 C 17.05 14.8 16.39 14.36 15.77 14.21 L 15.77 21.95 L 15.76 22.16 L 15.72 22.39 L 15.66 22.64 L 15.57 22.9 L 15.44 23.17 L 15.27 23.43 L 15.06 23.68 C 14.55 24.27 13.83 24.56 12.88 24.56 C 11.87 24.56 11.11 24.27 10.6 23.68 C 10.48 23.56 10.38 23.43 10.29 23.3 C 10.2 23.16 10.13 23.03 10.08 22.89 C 10.03 22.76 9.99 22.63 9.96 22.51 C 9.93 22.39 9.91 22.27 9.9 22.15 C 9.88 22 9.87 21.9 9.87 21.82 L 9.87 21.59 C 9.87 21.52 9.88 21.47 9.88 21.46 C 9.88 21.28 9.96 21.12 10.11 20.99 C 10.261 20.86 10.465 20.808 10.66 20.85 C 10.84 20.85 10.98 20.93 11.1 21.08 C 11.22 21.23 11.28 21.42 11.28 21.64 C 11.22 22.05 11.3 22.4 11.53 22.69 C 11.74 22.98 12.18 23.13 12.85 23.13 C 13.37 23.13 13.75 23.01 13.98 22.77 C 14.11 22.64 14.21 22.48 14.27 22.29 C 14.33 22.1 14.36 21.95 14.35 21.82 L 14.34 21.63 L 14.34 14.27 C 13.61 14.45 12.96 14.83 12.41 15.41 C 12.37 15.49 12.29 15.57 12.18 15.64 C 12.07 15.71 11.97 15.75 11.88 15.75 C 11.7 15.75 11.5 15.64 11.28 15.41 C 10.48 14.52 9.63 14.08 8.73 14.1 C 8.33 14.11 7.95 14.17 7.61 14.3 C 7.26 14.43 7 14.56 6.82 14.69 C 6.65 14.82 6.46 14.97 6.28 15.14 C 6.1 15.31 5.99 15.41 5.96 15.43 C 5.75 15.57 5.58 15.65 5.45 15.65 C 5.32 15.65 5.15 15.59 4.97 15.48 C 4.81 15.38 4.71 15.27 4.67 15.16 C 4.64 15.04 4.63 14.87 4.64 14.65 Z M 6.73 13.23 C 7.41 12.87 8.05 12.7 8.65 12.7 L 8.73 12.7 C 9.88 12.7 10.93 13.14 11.88 14.03 C 12.26 13.7 12.72 13.41 13.27 13.15 C 13.81 12.89 14.4 12.74 15.04 12.7 L 15.12 12.7 C 16.27 12.7 17.32 13.14 18.27 14.03 C 18.65 13.7 19.11 13.41 19.66 13.15 C 20.2 12.89 20.79 12.74 21.43 12.7 L 21.52 12.7 C 22.08 12.7 22.67 12.85 23.27 13.14 C 22.83 12.28 22.53 11.73 22.39 11.48 C 20.6 9.14 18.12 7.97 14.96 7.97 C 13.38 7.97 11.97 8.27 10.72 8.87 C 9.48 9.47 8.46 10.34 7.67 11.48 C 7.44 11.82 7.12 12.41 6.73 13.23 Z" fill="hsl(0, 0%, 100%)"></path></svg>