<svg xmlns="http://www.w3.org/2000/svg" width="30" height="30"><path d="M 13.9 2 L 13.9 5.532 L 15.595 5.682 L 15.672 5.607 C 15.249 4.544 14.732 2.803 13.9 2 M 16.751 5.908 L 19.216 6.809 C 19.531 5.522 19.525 3.997 19.525 2.676 C 19.159 2.857 18.92 3.202 18.656 3.503 C 18.065 4.177 16.965 5.03 16.751 5.908 M 20.141 7.335 C 20.434 7.946 21.518 9.004 22.144 9.289 L 23.993 5.532 L 20.141 7.335 M 22.607 10.191 L 23.608 12.595 L 24.709 11.863 L 26.921 9.89 C 25.541 9.89 23.952 9.878 22.607 10.191 M 8.121 11.694 C 8.121 13.336 7.681 15.686 8.478 17.179 C 9.337 18.785 12.045 18.688 12.949 17.179 C 13.817 15.728 13.361 13.316 13.361 11.694 C 12.994 11.664 11.928 11.493 11.668 11.814 C 11.47 12.058 11.588 12.676 11.588 12.971 C 11.588 13.939 11.806 15.201 11.494 16.127 C 11.254 16.839 10.392 16.974 10.024 16.276 C 9.647 15.564 9.816 14.498 9.816 13.723 L 9.816 11.694 L 8.121 11.694 M 14.285 11.694 C 14.729 13.312 15.345 14.913 15.89 16.503 C 16.037 16.93 16.165 17.944 16.559 18.207 C 16.856 18.405 17.818 18.407 18.055 18.123 C 18.443 17.661 18.591 16.765 18.793 16.202 C 19.297 14.8 20.239 13.174 20.372 11.694 L 18.633 11.771 L 18.225 12.671 L 17.29 15.15 L 16.481 12.671 L 16.095 11.771 L 14.285 11.694 M 28 15.075 L 28 14.925 L 25.149 14.011 L 24.019 13.708 L 23.909 14.249 L 23.909 15.751 L 24.019 16.292 L 25.149 15.989 L 28 15.075 M 23.608 17.405 L 22.607 19.809 C 23.864 20.101 25.637 20.248 26.921 20.11 L 24.709 18.137 L 23.608 17.405 M 20.141 22.665 L 23.916 24.468 L 22.144 20.711 C 21.518 20.996 20.434 22.054 20.141 22.665 M 16.751 24.092 C 16.965 24.97 18.065 25.823 18.656 26.497 C 18.92 26.798 19.159 27.143 19.525 27.324 C 19.525 26.003 19.531 24.478 19.216 23.191 L 16.751 24.092 M 13.9 24.468 L 13.9 28 L 13.977 28 L 15.672 24.393 L 15.595 24.318 Z" fill="rgb(255, 255, 255)"></path></svg>